<svg width="32" height="37" viewBox="0 0 32 37" fill="none" xmlns="http://www.w3.org/2000/svg">
<g filter="url(#filter0_d_28_40)">
<mask id="path-1-outside-1_28_40" maskUnits="userSpaceOnUse" x="3" y="2" width="26" height="31" fill="black">
<rect fill="white" x="3" y="2" width="26" height="31"/>
<path fill-rule="evenodd" clip-rule="evenodd" d="M10.543 20.0588L9.03054 17.7479C7.99782 16.17 5.79806 15.5943 4.11545 16.4594L4.50751 16.2578C4.08993 16.4725 3.8897 17.0077 4.06163 17.4525L6.15521 22.8691C6.4871 23.7278 7.33476 24.9422 8.03716 25.5523C8.03716 25.5523 12.2489 29.0383 12.2489 30.3453V32H19.0724L20.7783 28.5882L22.4842 32H24.1901V30.3453C24.1901 29.0383 26.764 24.9217 26.764 24.9217C27.2378 24.1215 27.6327 22.7119 27.6327 21.7759V14.8931C27.6018 13.3692 26.3065 12.1342 24.7082 12.1342C23.9086 12.1342 23.2609 12.7517 23.2609 13.5141V14.0653C23.2609 12.5415 21.9656 11.3065 20.3672 11.3065C19.5676 11.3065 18.92 11.924 18.92 12.6863V13.2376C18.92 11.7137 17.6246 10.4787 16.0263 10.4787C15.2267 10.4787 14.579 11.0962 14.579 11.8586V12.4099C14.579 12.1649 14.5528 11.9703 14.5023 11.816L14.0608 4.70795C14.0011 3.74677 13.191 3 12.2489 3C11.3002 3 10.543 3.7636 10.543 4.70555V11.5294V20.0588ZM22.515 18.3529H24.2209V25.1765H22.515V18.3529ZM19.1033 18.3529H20.8092V25.1765H19.1033V18.3529ZM15.6915 18.3529H17.3974V25.1765H15.6915V18.3529Z"/>
</mask>
<path fill-rule="evenodd" clip-rule="evenodd" d="M10.543 20.0588L9.03054 17.7479C7.99782 16.17 5.79806 15.5943 4.11545 16.4594L4.50751 16.2578C4.08993 16.4725 3.8897 17.0077 4.06163 17.4525L6.15521 22.8691C6.4871 23.7278 7.33476 24.9422 8.03716 25.5523C8.03716 25.5523 12.2489 29.0383 12.2489 30.3453V32H19.0724L20.7783 28.5882L22.4842 32H24.1901V30.3453C24.1901 29.0383 26.764 24.9217 26.764 24.9217C27.2378 24.1215 27.6327 22.7119 27.6327 21.7759V14.8931C27.6018 13.3692 26.3065 12.1342 24.7082 12.1342C23.9086 12.1342 23.2609 12.7517 23.2609 13.5141V14.0653C23.2609 12.5415 21.9656 11.3065 20.3672 11.3065C19.5676 11.3065 18.92 11.924 18.92 12.6863V13.2376C18.92 11.7137 17.6246 10.4787 16.0263 10.4787C15.2267 10.4787 14.579 11.0962 14.579 11.8586V12.4099C14.579 12.1649 14.5528 11.9703 14.5023 11.816L14.0608 4.70795C14.0011 3.74677 13.191 3 12.2489 3C11.3002 3 10.543 3.7636 10.543 4.70555V11.5294V20.0588ZM22.515 18.3529H24.2209V25.1765H22.515V18.3529ZM19.1033 18.3529H20.8092V25.1765H19.1033V18.3529ZM15.6915 18.3529H17.3974V25.1765H15.6915V18.3529Z" fill="white"/>
<path d="M10.543 20.0588L9.70627 20.6064L11.543 23.4128V20.0588H10.543ZM9.03054 17.7479L9.86726 17.2003L9.03054 17.7479ZM4.06163 17.4525L3.12888 17.813H3.12888L4.06163 17.4525ZM6.15521 22.8691L7.08796 22.5086L6.15521 22.8691ZM8.03716 25.5523L7.38143 26.3073L7.39039 26.3151L7.39954 26.3227L8.03716 25.5523ZM12.2489 32H11.2489V33H12.2489V32ZM19.0724 32V33H19.6904L19.9668 32.4472L19.0724 32ZM20.7783 28.5882L21.6727 28.141L20.7783 26.3522L19.8839 28.141L20.7783 28.5882ZM22.4842 32L21.5897 32.4472L21.8661 33H22.4842V32ZM24.1901 32V33H25.1901V32H24.1901ZM26.764 24.9217L27.6119 25.4519L27.6183 25.4416L27.6244 25.4312L26.764 24.9217ZM27.6327 14.8931H28.6327V14.8829L28.6325 14.8728L27.6327 14.8931ZM14.5023 11.816L13.5042 11.878L13.5121 12.0058L13.552 12.1275L14.5023 11.816ZM14.0608 4.70795L13.0628 4.76994L14.0608 4.70795ZM10.543 4.70555H9.543H10.543ZM24.2209 18.3529H25.2209V17.3529H24.2209V18.3529ZM24.2209 25.1765V26.1765H25.2209V25.1765H24.2209ZM22.515 25.1765H21.515V26.1765H22.515V25.1765ZM20.8092 18.3529H21.8092V17.3529H20.8092V18.3529ZM20.8092 25.1765V26.1765H21.8092V25.1765H20.8092ZM19.1033 25.1765H18.1033V26.1765H19.1033V25.1765ZM17.3974 18.3529H18.3974V17.3529H17.3974V18.3529ZM17.3974 25.1765V26.1765H18.3974V25.1765H17.3974ZM15.6915 25.1765H14.6915V26.1765H15.6915V25.1765ZM11.3797 19.5112L9.86726 17.2003L8.19381 18.2955L9.70627 20.6064L11.3797 19.5112ZM9.86726 17.2003C8.55234 15.1912 5.79295 14.4725 3.65823 15.57L4.57266 17.3487C5.80318 16.7161 7.4433 17.1488 8.19382 18.2955L9.86726 17.2003ZM4.57266 17.3487L4.96472 17.1471L4.05029 15.3684L3.65823 15.57L4.57266 17.3487ZM4.05029 15.3684C3.16828 15.8219 2.77657 16.9015 3.12888 17.813L4.99438 17.092C4.99944 17.105 5.00003 17.1144 5 17.118C4.99997 17.121 4.99958 17.1206 5.0003 17.1187C5.00102 17.1168 5.00092 17.1184 4.9969 17.1231C4.99247 17.1283 4.98231 17.1381 4.96472 17.1471L4.05029 15.3684ZM3.12888 17.813L5.22246 23.2296L7.08796 22.5086L4.99438 17.092L3.12888 17.813ZM5.22246 23.2296C5.61251 24.2388 6.55457 25.5891 7.38143 26.3073L8.6929 24.7973C8.11495 24.2953 7.3617 23.2168 7.08796 22.5086L5.22246 23.2296ZM8.03716 25.5523C7.39954 26.3227 7.39949 26.3226 7.39945 26.3226C7.39946 26.3226 7.39944 26.3226 7.39946 26.3226C7.39949 26.3226 7.39959 26.3227 7.39975 26.3228C7.40007 26.3231 7.40065 26.3236 7.40147 26.3243C7.40312 26.3256 7.40575 26.3278 7.40934 26.3308C7.41653 26.3368 7.42755 26.346 7.44215 26.3582C7.47135 26.3827 7.51483 26.4193 7.57054 26.4666C7.68203 26.5614 7.84224 26.699 8.03486 26.8683C8.42112 27.208 8.93298 27.6715 9.44205 28.1719C9.95554 28.6766 10.4453 29.1984 10.7997 29.6568C10.9774 29.8866 11.1038 30.0784 11.1816 30.2272C11.2698 30.396 11.2489 30.4218 11.2489 30.3453H13.2489C13.2489 29.9421 13.0963 29.5731 12.9542 29.301C12.8017 29.0091 12.599 28.7141 12.3819 28.4333C11.9466 27.8704 11.3834 27.2757 10.844 26.7455C10.3001 26.211 9.75906 25.7213 9.35563 25.3665C9.1534 25.1886 8.98456 25.0437 8.86572 24.9427C8.80628 24.8921 8.75927 24.8526 8.72677 24.8253C8.71052 24.8117 8.69789 24.8012 8.68914 24.7939C8.68477 24.7902 8.68136 24.7874 8.67896 24.7854C8.67776 24.7844 8.6768 24.7836 8.67611 24.783C8.67576 24.7828 8.67547 24.7825 8.67525 24.7823C8.67514 24.7822 8.67502 24.7822 8.67497 24.7821C8.67487 24.782 8.67478 24.782 8.03716 25.5523ZM11.2489 30.3453V32H13.2489V30.3453H11.2489ZM12.2489 33H19.0724V31H12.2489V33ZM19.9668 32.4472L21.6727 29.0354L19.8839 28.141L18.178 31.5528L19.9668 32.4472ZM19.8839 29.0354L21.5897 32.4472L23.3786 31.5528L21.6727 28.141L19.8839 29.0354ZM22.4842 33H24.1901V31H22.4842V33ZM25.1901 32V30.3453H23.1901V32H25.1901ZM25.1901 30.3453C25.1901 30.3454 25.1901 30.3432 25.1903 30.3388C25.1906 30.3344 25.191 30.3281 25.1919 30.3198C25.1937 30.303 25.1969 30.2802 25.2023 30.2509C25.2133 30.1914 25.2316 30.115 25.2595 30.021C25.3156 29.8316 25.4011 29.6009 25.513 29.3365C25.7369 28.8081 26.0421 28.202 26.3571 27.6183C26.6703 27.0377 26.9848 26.4948 27.2216 26.096C27.3398 25.897 27.4381 25.7348 27.5065 25.6228C27.5408 25.5668 27.5675 25.5235 27.5855 25.4944C27.5944 25.4799 27.6012 25.469 27.6057 25.4618C27.6079 25.4582 27.6096 25.4556 27.6106 25.4539C27.6111 25.4531 27.6115 25.4525 27.6117 25.4522C27.6118 25.452 27.6119 25.4519 27.6119 25.4518C27.6119 25.4518 27.6119 25.4518 27.6119 25.4518C27.6119 25.4518 27.6119 25.4519 26.764 24.9217C25.9161 24.3916 25.916 24.3917 25.916 24.3918C25.9159 24.3918 25.9159 24.3919 25.9158 24.392C25.9157 24.3922 25.9155 24.3925 25.9153 24.3928C25.9149 24.3935 25.9143 24.3944 25.9136 24.3955C25.9122 24.3978 25.9101 24.4011 25.9075 24.4054C25.9022 24.4139 25.8945 24.4262 25.8847 24.4421C25.8649 24.474 25.8364 24.5204 25.8002 24.5796C25.7279 24.6978 25.6251 24.8675 25.502 25.0748C25.2562 25.4887 24.9272 26.0566 24.597 26.6685C24.2684 27.2773 23.9302 27.9455 23.6714 28.5565C23.4343 29.1163 23.1901 29.7913 23.1901 30.3453H25.1901ZM27.6244 25.4312C27.9202 24.9316 28.1668 24.29 28.3396 23.667C28.5123 23.0446 28.6327 22.3639 28.6327 21.7759H26.6327C26.6327 22.124 26.5556 22.616 26.4124 23.1324C26.2693 23.6483 26.0815 24.1116 25.9035 24.4122L27.6244 25.4312ZM28.6327 21.7759V14.8931H26.6327V21.7759H28.6327ZM28.6325 14.8728C28.5899 12.7725 26.8181 11.1342 24.7082 11.1342V13.1342C25.7948 13.1342 26.6137 13.9659 26.6329 14.9133L28.6325 14.8728ZM24.7082 11.1342C23.4018 11.1342 22.2609 12.155 22.2609 13.5141H24.2609C24.2609 13.3484 24.4153 13.1342 24.7082 13.1342V11.1342ZM22.2609 13.5141V14.0653H24.2609V13.5141H22.2609ZM24.2609 14.0653C24.2609 11.9448 22.4723 10.3065 20.3672 10.3065V12.3065C21.4588 12.3065 22.2609 13.1382 22.2609 14.0653H24.2609ZM20.3672 10.3065C19.0608 10.3065 17.92 11.3273 17.92 12.6863H19.92C19.92 12.5207 20.0744 12.3065 20.3672 12.3065V10.3065ZM17.92 12.6863V13.2376H19.92V12.6863H17.92ZM19.92 13.2376C19.92 11.117 18.1314 9.47873 16.0263 9.47873V11.4787C17.1178 11.4787 17.92 12.3104 17.92 13.2376H19.92ZM16.0263 9.47873C14.7199 9.47873 13.579 10.4995 13.579 11.8586H15.579C15.579 11.6929 15.7335 11.4787 16.0263 11.4787V9.47873ZM13.579 11.8586V12.4099H15.579V11.8586H13.579ZM15.579 12.4099C15.579 12.1012 15.547 11.7927 15.4525 11.5045L13.552 12.1275C13.5587 12.1478 13.579 12.2287 13.579 12.4099H15.579ZM15.5004 11.754L15.0589 4.64597L13.0628 4.76994L13.5042 11.878L15.5004 11.754ZM15.0589 4.64597C14.9663 3.15404 13.7157 2 12.2489 2V4C12.6664 4 13.036 4.33949 13.0628 4.76994L15.0589 4.64597ZM12.2489 2C10.7456 2 9.543 3.21365 9.543 4.70555H11.543C11.543 4.31356 11.8548 4 12.2489 4V2ZM9.543 4.70555V11.5294H11.543V4.70555H9.543ZM9.543 11.5294V20.0588H11.543V11.5294H9.543ZM22.515 19.3529H24.2209V17.3529H22.515V19.3529ZM23.2209 18.3529V25.1765H25.2209V18.3529H23.2209ZM24.2209 24.1765H22.515V26.1765H24.2209V24.1765ZM23.515 25.1765V18.3529H21.515V25.1765H23.515ZM19.1033 19.3529H20.8092V17.3529H19.1033V19.3529ZM19.8091 18.3529V25.1765H21.8092V18.3529H19.8091ZM20.8092 24.1765H19.1033V26.1765H20.8092V24.1765ZM20.1033 25.1765V18.3529H18.1033V25.1765H20.1033ZM15.6915 19.3529H17.3974V17.3529H15.6915V19.3529ZM16.3974 18.3529V25.1765H18.3974V18.3529H16.3974ZM17.3974 24.1765H15.6915V26.1765H17.3974V24.1765ZM16.6915 25.1765V18.3529H14.6915V25.1765H16.6915Z" fill="black" fill-opacity="0.8" mask="url(#path-1-outside-1_28_40)"/>
</g>
<defs>
<filter id="filter0_d_28_40" x="0.000244141" y="0" width="31.6323" height="37" filterUnits="userSpaceOnUse" color-interpolation-filters="sRGB">
<feFlood flood-opacity="0" result="BackgroundImageFix"/>
<feColorMatrix in="SourceAlpha" type="matrix" values="0 0 0 0 0 0 0 0 0 0 0 0 0 0 0 0 0 0 127 0" result="hardAlpha"/>
<feOffset dy="1"/>
<feGaussianBlur stdDeviation="1.5"/>
<feColorMatrix type="matrix" values="0 0 0 0 0 0 0 0 0 0 0 0 0 0 0 0 0 0 0.2 0"/>
<feBlend mode="normal" in2="BackgroundImageFix" result="effect1_dropShadow_28_40"/>
<feBlend mode="normal" in="SourceGraphic" in2="effect1_dropShadow_28_40" result="shape"/>
</filter>
</defs>
</svg>
